<svg width="23" height="22" viewBox="0 0 23 22" fill="none" xmlns="http://www.w3.org/2000/svg">
<path fill-rule="evenodd" clip-rule="evenodd" d="M6.76859 0.250001H15.898C16.4679 0.249981 16.9519 0.249971 17.3518 0.291321C17.7776 0.335341 18.1711 0.430941 18.5429 0.660711C18.9147 0.890481 19.1762 1.19971 19.406 1.56088C19.6218 1.9001 19.8382 2.33297 20.0931 2.8428L20.1096 2.87574C20.1193 2.89518 20.1282 2.91504 20.1362 2.93526L21.5398 6.4834C21.7068 6.90559 21.8919 7.4323 21.946 7.97128C22.0014 8.52258 21.9254 9.1541 21.4934 9.7019C21.1401 10.15 20.6488 10.4863 20.0833 10.6463V20.25H21.3333C21.7475 20.25 22.0833 20.5858 22.0833 21C22.0833 21.4142 21.7475 21.75 21.3333 21.75H1.33333C0.919118 21.75 0.583328 21.4142 0.583328 21C0.583328 20.5858 0.919118 20.25 1.33333 20.25H2.58333V10.6464C2.01779 10.4863 1.52645 10.15 1.17308 9.7019C0.741118 9.1541 0.665148 8.52257 0.720508 7.97127C0.774628 7.43229 0.959718 6.90559 1.12673 6.4834L2.53034 2.93526C2.53834 2.91504 2.54721 2.89518 2.55694 2.87574L2.57343 2.84275C2.82831 2.33295 3.04472 1.90009 3.26056 1.56088C3.49037 1.19971 3.75186 0.890481 4.12364 0.660711C4.49541 0.430941 4.88894 0.335341 5.31475 0.291321C5.71467 0.249971 6.19862 0.249981 6.76859 0.250001ZM17.3332 9.8875C17.6692 10.2433 18.0991 10.5096 18.5833 10.6465V20.25H14.5833V17.4678C14.5833 17.028 14.5833 16.6486 14.5551 16.3374C14.5253 16.0082 14.4592 15.6822 14.2819 15.375C14.0844 15.033 13.8003 14.7489 13.4583 14.5514C13.1511 14.3741 12.8251 14.308 12.496 14.2782C12.1847 14.25 11.8053 14.25 11.3655 14.25H11.3011C10.8613 14.25 10.4819 14.25 10.1706 14.2782C9.84153 14.308 9.51553 14.3741 9.20833 14.5514C8.86629 14.7489 8.58225 15.033 8.38477 15.375C8.2074 15.6822 8.14135 16.0082 8.11151 16.3374C8.0833 16.6486 8.08331 17.028 8.08333 17.4677V20.25H4.08333V10.6465C4.56746 10.5095 4.99731 10.2433 5.33325 9.8875C5.83463 10.4186 6.54523 10.75 7.33324 10.75C8.12126 10.75 8.83186 10.4186 9.33325 9.8875C9.83463 10.4186 10.5452 10.75 11.3332 10.75C12.1212 10.75 12.8318 10.4186 13.3332 9.8875C13.8346 10.4186 14.5452 10.75 15.3332 10.75C16.1212 10.75 16.8318 10.4186 17.3332 9.8875ZM9.58333 20.25H13.0833V17.5C13.0833 17.0189 13.0826 16.7082 13.0612 16.4727C13.0408 16.2476 13.0064 16.1659 12.9828 16.125C12.917 16.011 12.8223 15.9163 12.7083 15.8505C12.6674 15.8269 12.5857 15.7925 12.3606 15.7721C12.1251 15.7507 11.8144 15.75 11.3333 15.75C10.8522 15.75 10.5415 15.7507 10.306 15.7721C10.0809 15.7925 9.99923 15.8269 9.95833 15.8505C9.84433 15.9163 9.74963 16.011 9.68383 16.125C9.66023 16.1659 9.62583 16.2476 9.60543 16.4727C9.58403 16.7082 9.58333 17.0189 9.58333 17.5V20.25ZM6.08324 8C6.08324 8.69036 6.64289 9.25 7.33324 9.25C8.0236 9.25 8.58324 8.69036 8.58324 8C8.58324 7.58579 8.91903 7.25 9.33324 7.25C9.74743 7.25 10.0832 7.58579 10.0832 8C10.0832 8.69036 10.6429 9.25 11.3332 9.25C12.0236 9.25 12.5832 8.69036 12.5832 8C12.5832 7.58579 12.919 7.25 13.3332 7.25C13.7474 7.25 14.0832 7.58579 14.0832 8C14.0832 8.69036 14.6429 9.25 15.3332 9.25C16.0236 9.25 16.5832 8.69036 16.5832 8C16.5832 7.58579 16.919 7.25 17.3332 7.25C17.7474 7.25 18.0832 7.58579 18.0832 8C18.0832 8.69036 18.6429 9.25 19.3332 9.25C19.7312 9.25 20.0855 9.0649 20.3156 8.77305C20.4295 8.62859 20.4846 8.43094 20.4535 8.12114C20.4212 7.79903 20.3023 7.43275 20.145 7.03518L18.7534 3.51739C18.4857 2.98204 18.3068 2.62749 18.1404 2.36612C17.9805 2.1147 17.8658 2.00562 17.7543 1.93669C17.6428 1.86776 17.4939 1.81401 17.1975 1.78336C16.8838 1.75093 16.4779 1.75 15.8611 1.75H6.80547C6.18866 1.75 5.78273 1.75093 5.46902 1.78336C5.1726 1.81401 5.02377 1.86776 4.91223 1.93669C4.8007 2.00562 4.68607 2.1147 4.52609 2.36612C4.35979 2.62749 4.18088 2.98204 3.91316 3.51739L2.52156 7.03518C2.36428 7.43275 2.24535 7.79903 2.213 8.12115C2.18189 8.43095 2.23699 8.62861 2.35092 8.77307C2.58103 9.0649 2.93529 9.25 3.33324 9.25C4.0236 9.25 4.58324 8.69036 4.58324 8C4.58324 7.58579 4.91903 7.25 5.33324 7.25C5.74746 7.25 6.08324 7.58579 6.08324 8Z" fill="#797979"/>
</svg>
